<svg width="1200" height="700" viewBox="0 0 1200 700" fill="none" xmlns="http://www.w3.org/2000/svg">
  <defs>
    <linearGradient id="g" x1="0" y1="0" x2="1200" y2="700" gradientUnits="userSpaceOnUse">
      <stop stop-color="#0B0B0B"/>
      <stop offset="1" stop-color="#050505"/>
    </linearGradient>
    <radialGradient id="r" cx="0" cy="0" r="1" gradientUnits="userSpaceOnUse" gradientTransform="translate(320 210) rotate(35) scale(520 320)">
      <stop stop-color="#91FF00" stop-opacity="0.20"/>
      <stop offset="1" stop-color="#91FF00" stop-opacity="0"/>
    </radialGradient>
    <pattern id="grid" width="60" height="60" patternUnits="userSpaceOnUse">
      <path d="M60 0H0V60" stroke="rgba(255,255,255,0.06)" stroke-width="1"/>
    </pattern>
  </defs>
  <rect width="1200" height="700" fill="url(#g)"/>
  <rect width="1200" height="700" fill="url(#grid)" opacity="0.65"/>
  <rect width="1200" height="700" fill="url(#r)"/>
  <rect x="110" y="110" width="980" height="480" rx="28" fill="rgba(255,255,255,0.04)" stroke="rgba(255,255,255,0.10)"/>
  <rect x="150" y="160" width="360" height="22" rx="11" fill="rgba(145,255,0,0.22)"/>
  <rect x="150" y="210" width="520" height="16" rx="8" fill="rgba(255,255,255,0.12)"/>
  <rect x="150" y="240" width="460" height="16" rx="8" fill="rgba(255,255,255,0.10)"/>
  <rect x="150" y="270" width="400" height="16" rx="8" fill="rgba(255,255,255,0.08)"/>
  <rect x="150" y="330" width="210" height="38" rx="19" fill="rgba(145,255,0,0.10)" stroke="rgba(145,255,0,0.26)"/>
  <rect x="380" y="330" width="170" height="38" rx="19" fill="rgba(255,255,255,0.04)" stroke="rgba(255,255,255,0.10)"/>
  <circle cx="915" cy="365" r="105" fill="rgba(145,255,0,0.08)" stroke="rgba(145,255,0,0.24)"/>
  <path d="M915 282C945 319 959 343 976 365C959 387 945 411 915 448C885 411 871 387 854 365C871 343 885 319 915 282Z" fill="rgba(255,255,255,0.08)"/>
</svg>

