<svg width="24" height="24" viewBox="0 0 24 24" fill="none" xmlns="http://www.w3.org/2000/svg">
<path d="M10.4094 8.43373C10.3087 8.43728 10.2084 8.42053 10.1144 8.38446C10.0203 8.34839 9.9345 8.29375 9.86204 8.2238C9.78958 8.15385 9.73194 8.07002 9.69258 7.97731C9.65322 7.8846 9.63293 7.78492 9.63293 7.6842C9.63293 7.58348 9.65322 7.48379 9.69258 7.39108C9.73194 7.29838 9.78958 7.21455 9.86204 7.1446C9.9345 7.07464 10.0203 7.02 10.1144 6.98394C10.2084 6.94787 10.3087 6.93111 10.4094 6.93466L16.0662 6.93466C16.265 6.93479 16.4556 7.0138 16.5961 7.15433C16.7366 7.29487 16.8157 7.48545 16.8158 7.6842L16.8158 13.3411C16.8193 13.4417 16.8026 13.542 16.7665 13.6361C16.7304 13.7301 16.6758 13.8159 16.6058 13.8884C16.5359 13.9609 16.4521 14.0185 16.3594 14.0579C16.2666 14.0972 16.167 14.1175 16.0662 14.1175C15.9655 14.1175 15.8658 14.0972 15.7731 14.0579C15.6804 14.0185 15.5966 13.9609 15.5266 13.8884C15.4567 13.8159 15.402 13.7301 15.366 13.6361C15.3299 13.542 15.3132 13.4417 15.3167 13.3411L15.3167 9.49439L8.46485 16.3463C8.32419 16.4869 8.13343 16.5659 7.93452 16.5659C7.7356 16.5659 7.54484 16.4869 7.40419 16.3463C7.26353 16.2056 7.18452 16.0148 7.18452 15.8159C7.18452 15.617 7.26353 15.4262 7.40419 15.2856L14.2561 8.43373L10.4094 8.43373Z" fill="#91FF00"/>
</svg>
